<?xml version="1.0" encoding="UTF-8"?><svg id="Livello_2" xmlns="http://www.w3.org/2000/svg" viewBox="0 0 96.41 93"><defs><style>.cls-1{fill:#dcdc34;}</style></defs><g id="Livello_1-2"><rect width="96.41" height="93"/><path class="cls-1" d="M48.26,31.49c1.21-2.52,2.79-4.44,4.98-5.81,7.54-4.74,17.13-.9,19.63,7.86,1.4,4.88,.46,9.44-1.94,13.78-2.17,3.91-5.07,7.28-8.1,10.53-4.24,4.54-8.96,8.55-13.83,12.39-.46,.37-.85,.54-1.4,.11-7.49-5.91-14.59-12.2-20.18-20.02-2.12-2.97-3.77-6.17-4.3-9.83-1.01-7.08,2.51-13.79,8.6-16.03,6.03-2.22,12.81,.27,15.9,5.9,.17,.31,.34,.62,.63,1.13Z"/><path d="M49.39,73.89c-.67,0-1.3-.43-1.52-1.1l-4.6-14.12c-.19-.58-.03-1.21,.4-1.64l5.87-5.77-5.86-6.81c-.52-.6-.52-1.5,0-2.1l6.09-6.98-5.42-9.51c-.44-.77-.17-1.74,.6-2.18,.77-.44,1.74-.17,2.18,.6l5.98,10.49c.34,.59,.26,1.33-.18,1.84l-5.92,6.79,5.93,6.89c.55,.64,.51,1.59-.09,2.19l-6.23,6.12,4.29,13.18c.27,.84-.19,1.74-1.03,2.02-.16,.05-.33,.08-.5,.08Z"/></g></svg>