<svg width="31" height="31" viewBox="0 0 31 31" fill="none" xmlns="http://www.w3.org/2000/svg">
<g clip-path="url(#clip0_63_2484)">
<path d="M30.25 0.25H0.25V30.25H30.25V0.25Z" fill="black" stroke="#DCDC34" stroke-width="0.5" stroke-miterlimit="10"/>
<path d="M24.5302 12.57L21.7802 10.63L20.6102 13.75L22.0902 17.52L16.7802 21.26L18.3502 16.98L15.2202 14.02L17.3602 7.5L15.5702 6.23C15.3802 6.09 15.1202 6.09 14.9202 6.23L5.97024 12.57C5.51024 12.9 5.73024 13.65 6.29024 13.65H7.32024V22.89C7.32024 23.71 7.97024 24.38 8.77024 24.38H21.6802C22.4802 24.38 23.1302 23.71 23.1302 22.89V13.64H24.2202C24.7802 13.64 25.0102 12.89 24.5402 12.56L24.5302 12.57Z" fill="#DCDC34"/>
</g>
<defs>
<clipPath id="clip0_63_2484">
<rect width="30.5" height="30.5" fill="white"/>
</clipPath>
</defs>
</svg>
