<svg width="31" height="31" viewBox="0 0 31 31" fill="none" xmlns="http://www.w3.org/2000/svg">
<path d="M30.25 0.25H0.25V30.25H30.25V0.25Z" fill="black" stroke="#DCDC34" stroke-width="0.5" stroke-miterlimit="10"/>
<path d="M23.83 14.29C23.37 14.29 22.98 14.61 22.86 15.04L20.83 14.76C20.77 14.13 20.61 13.52 20.37 12.97L22.01 11.76C22.33 12.02 22.78 12.07 23.15 11.85C23.63 11.56 23.8 10.92 23.52 10.42C23.24 9.92004 22.62 9.75004 22.14 10.04C21.74 10.28 21.56 10.75 21.66 11.19L19.81 11.98C19.46 11.48 19.03 11.04 18.54 10.67L19.34 8.87004C19.74 8.93004 20.16 8.75004 20.37 8.36004C20.65 7.86004 20.48 7.22004 20 6.93004C19.52 6.64004 18.9 6.81004 18.62 7.31004C18.39 7.72004 18.46 8.22004 18.76 8.55004L17.6 10.1C17.07 9.85004 16.5 9.69004 15.9 9.62004L15.62 7.46004C16.04 7.33004 16.34 6.93004 16.34 6.46004C16.34 5.88004 15.89 5.42004 15.33 5.42004C14.77 5.42004 14.32 5.89004 14.32 6.46004C14.32 6.90004 14.59 7.28004 14.97 7.43004L14.77 9.61004H14.89C14.23 9.67004 13.6 9.84004 13.03 10.12L11.86 8.54004C12.16 8.21004 12.23 7.71004 12 7.30004C11.72 6.80004 11.1 6.63004 10.62 6.92004C10.14 7.21004 9.97004 7.85004 10.25 8.35004C10.46 8.73004 10.88 8.92004 11.28 8.86004L12.09 10.7C11.61 11.06 11.19 11.49 10.85 11.99L8.96004 11.18C9.06004 10.74 8.88004 10.27 8.48004 10.03C8.00004 9.74004 7.38004 9.91004 7.10004 10.41C6.82004 10.91 6.99004 11.55 7.47004 11.84C7.84004 12.06 8.29004 12.01 8.61004 11.75L10.3 12.99C10.06 13.54 9.91004 14.13 9.85004 14.75L7.77004 15.03C7.65004 14.6 7.26004 14.28 6.80004 14.28C6.24004 14.28 5.79004 14.75 5.79004 15.32C5.79004 15.89 6.24004 16.36 6.80004 16.36C7.23004 16.36 7.60004 16.08 7.74004 15.69L9.85004 15.9C9.91004 16.48 10.06 17.04 10.27 17.55L8.62004 18.76C8.30004 18.5 7.85004 18.45 7.48004 18.67C7.00004 18.96 6.83004 19.6 7.11004 20.1C7.39004 20.6 8.01004 20.77 8.49004 20.48C8.89004 20.24 9.07004 19.77 8.97004 19.33L10.81 18.54C11.16 19.05 11.58 19.5 12.07 19.87L11.28 21.64C10.88 21.58 10.46 21.76 10.25 22.15C9.97004 22.65 10.14 23.29 10.62 23.58C11.1 23.87 11.72 23.7 12 23.2C12.23 22.79 12.16 22.29 11.86 21.96L12.99 20.44C13.54 20.71 14.14 20.89 14.78 20.95L14.97 23.07C14.59 23.22 14.32 23.6 14.32 24.04C14.32 24.62 14.77 25.08 15.33 25.08C15.89 25.08 16.34 24.61 16.34 24.04C16.34 23.57 16.03 23.17 15.62 23.04L15.89 20.95C16.51 20.88 17.1 20.71 17.64 20.45L18.76 21.96C18.46 22.29 18.39 22.79 18.62 23.2C18.9 23.7 19.52 23.87 20 23.58C20.48 23.29 20.65 22.65 20.37 22.15C20.16 21.77 19.74 21.58 19.34 21.64L18.56 19.89C19.05 19.52 19.49 19.07 19.84 18.55L21.66 19.33C21.56 19.77 21.74 20.24 22.14 20.48C22.62 20.77 23.24 20.6 23.52 20.1C23.8 19.6 23.63 18.96 23.15 18.67C22.78 18.45 22.33 18.5 22.01 18.76L20.38 17.56C20.6 17.04 20.75 16.48 20.81 15.89L22.87 15.69C23.02 16.08 23.38 16.36 23.81 16.36C24.37 16.36 24.82 15.89 24.82 15.32C24.82 14.75 24.37 14.28 23.81 14.28L23.83 14.29Z" fill="#DCDC34"/>
<path d="M13.3604 15.52C14.1667 15.52 14.8204 14.844 14.8204 14.01C14.8204 13.1761 14.1667 12.5 13.3604 12.5C12.5541 12.5 11.9004 13.1761 11.9004 14.01C11.9004 14.844 12.5541 15.52 13.3604 15.52Z" fill="#DCDC34" stroke="black" stroke-width="0.5" stroke-miterlimit="10"/>
<path d="M14.8299 19.13C15.3325 19.13 15.7399 18.7091 15.7399 18.19C15.7399 17.6709 15.3325 17.25 14.8299 17.25C14.3273 17.25 13.9199 17.6709 13.9199 18.19C13.9199 18.7091 14.3273 19.13 14.8299 19.13Z" fill="#DCDC34" stroke="black" stroke-width="0.5" stroke-miterlimit="10"/>
<path d="M17.7796 16.7501C18.4313 16.7501 18.9596 16.2038 18.9596 15.5301C18.9596 14.8563 18.4313 14.3101 17.7796 14.3101C17.1279 14.3101 16.5996 14.8563 16.5996 15.5301C16.5996 16.2038 17.1279 16.7501 17.7796 16.7501Z" fill="#DCDC34" stroke="black" stroke-width="0.5" stroke-miterlimit="10"/>
</svg>
