<svg width="31" height="31" viewBox="0 0 31 31" fill="none" xmlns="http://www.w3.org/2000/svg">
<g clip-path="url(#clip0_63_2474)">
<path d="M30.25 0.25H0.25V30.25H30.25V0.25Z" fill="black" stroke="#DCDC34" stroke-width="0.5" stroke-miterlimit="10"/>
<path d="M16.5598 14.83C15.3798 15.58 14.5598 16.62 14.0698 17.94C13.6498 19.07 13.5798 20.21 13.8098 21.41C13.8598 21.65 13.5898 21.83 13.4098 21.68C13.0498 21.4 12.8098 21.03 12.6398 20.59C12.5598 20.39 12.2998 20.35 12.1898 20.52C11.7898 21.11 11.6398 21.76 11.6898 22.44C11.7498 23.26 11.9298 24.08 12.0598 24.91C12.0998 24.89 12.0598 24.91 12.0598 24.91C10.2198 23.74 8.76979 22.24 8.20979 20.01C7.78979 18.33 8.08979 16.7 8.67979 15.11C9.08979 14.02 9.66979 13.03 10.3298 12.05C10.4698 11.85 10.7798 11.93 10.7998 12.17C10.8398 12.71 10.9698 13.22 11.2998 13.66C11.4498 13.86 11.7598 13.76 11.7698 13.51C11.8998 9.89999 13.8798 7.53999 16.5898 5.59999C16.7898 5.45999 17.0498 5.63999 16.9898 5.88999C16.8998 6.25999 16.8098 6.60999 16.7498 6.96999C16.4798 8.55999 16.7498 10.02 17.8198 11.27C18.6098 12.18 19.2698 13.17 19.4098 14.43C19.4498 14.82 19.4598 15.21 19.5098 15.61C19.9098 14.39 19.9998 13.17 19.8198 11.89C19.7798 11.61 20.1298 11.46 20.2898 11.69C21.2398 13.11 22.0198 14.56 22.3898 16.23C23.0398 19.15 22.1698 21.56 20.0398 23.51C19.6298 23.89 19.1698 24.21 18.6998 24.55C18.4898 24.7 18.2198 24.49 18.3098 24.24C18.4798 23.74 18.6298 23.27 18.7298 22.79C18.9898 21.47 18.7598 20.24 17.9098 19.17C17.7598 18.98 17.6098 18.78 17.4498 18.58C16.6398 17.54 16.3098 16.37 16.5798 15.05C16.5898 15 16.5998 14.95 16.5998 14.9C16.5998 14.89 16.5898 14.88 16.5498 14.81L16.5598 14.83Z" fill="#DCDC34"/>
</g>
<defs>
<clipPath id="clip0_63_2474">
<rect width="30.5" height="30.5" fill="white"/>
</clipPath>
</defs>
</svg>
