<svg width="31" height="31" viewBox="0 0 31 31" fill="none" xmlns="http://www.w3.org/2000/svg">
<g clip-path="url(#clip0_63_2487)">
<path d="M30.25 0.25H0.25V30.25H30.25V0.25Z" fill="black" stroke="#DCDC34" stroke-width="0.5" stroke-miterlimit="10"/>
<path d="M13.3303 25.92C12.8403 25.56 12.3403 25.23 11.8803 24.84C11.2903 24.34 10.8203 23.7101 10.4503 23.01C10.3603 22.83 10.3103 22.66 10.4503 22.48C10.5803 22.31 10.7402 22.29 10.9402 22.33C11.9303 22.5301 12.9303 22.6201 13.9402 22.6C14.3003 22.6 14.4703 22.83 14.3903 23.1901C14.2103 23.9701 14.0403 24.75 13.8703 25.5301C13.8303 25.7201 13.7302 25.84 13.5703 25.92H13.3403H13.3303ZM15.4402 20.71C15.9602 19.8 16.5802 18.97 17.3403 18.27C18.1302 17.54 18.9603 16.84 19.7803 16.14C20.6703 15.38 21.5102 14.57 22.1502 13.56C22.2602 13.38 22.3203 13.21 22.2003 13.02C22.1003 12.85 21.9303 12.81 21.6803 12.87C21.4903 12.92 21.3003 12.97 21.1103 13.01C19.7903 13.31 18.4403 13.45 17.0903 13.5C15.8603 13.54 14.6202 13.49 13.4002 13.35C13.1202 13.32 12.9502 13.12 12.9802 12.88C13.0103 12.63 13.2103 12.5 13.5003 12.53C13.6703 12.55 13.8503 12.57 14.0203 12.58C15.4903 12.72 16.9602 12.72 18.4303 12.58C19.6103 12.47 20.7802 12.29 21.9202 11.94C22.7802 11.68 23.6103 11.37 24.3202 10.78C24.7402 10.43 25.0602 10.01 25.1003 9.42005C25.1103 9.18005 24.9702 8.99005 24.7603 8.96005C24.5403 8.93005 24.3503 9.06005 24.3202 9.30005C24.2402 9.92005 23.7802 10.18 23.3102 10.48C23.3102 10.41 23.3102 10.38 23.3202 10.35C23.3802 9.66005 23.4402 8.96005 23.4902 8.27005C23.5203 7.88005 23.3502 7.58005 23.0502 7.34005C22.7002 7.07005 22.2902 6.92005 21.8802 6.79005C20.6702 6.41005 19.4202 6.27005 18.1602 6.17005C16.7702 6.06005 15.3903 6.01005 13.9903 6.09005C12.6403 6.16005 11.2903 6.28005 9.97025 6.56005C9.28025 6.71005 8.59025 6.89005 7.98025 7.28005C7.50025 7.59005 7.36025 8.00005 7.53025 8.56005C7.67025 9.00005 7.93025 9.35005 8.25025 9.65005C8.77025 10.15 9.31025 10.63 9.84025 11.13C10.3803 11.64 10.8503 12.2 11.1703 12.9C11.6003 13.86 11.5203 14.85 11.3103 15.84C11.1703 16.48 10.8203 17.02 10.5303 17.59C10.2103 18.21 10.0102 18.86 9.94025 19.55C9.92025 19.79 9.90025 20.03 9.88025 20.29C9.75025 20.24 9.66025 20.2 9.56025 20.15C9.13025 19.94 8.72025 19.72 8.44025 19.3C8.24025 19.01 8.24025 18.72 8.43025 18.43C8.50025 18.32 8.58025 18.21 8.68025 18.14C8.96025 17.94 9.24025 17.76 9.53025 17.58C9.76025 17.44 9.85025 17.22 9.75025 17.01C9.65025 16.79 9.41025 16.71 9.17025 16.84C8.85025 17.03 8.52025 17.21 8.23025 17.44C7.28025 18.22 7.24025 19.29 8.12025 20.15C8.61025 20.63 9.20025 20.91 9.83025 21.14C11.0703 21.58 12.3503 21.73 13.6502 21.74C15.0103 21.74 16.3502 21.59 17.6402 21.12C18.2902 20.88 18.8902 20.57 19.3802 20.06C19.9802 19.44 20.0703 18.61 19.6103 17.95C19.4703 17.75 19.2602 17.69 19.0702 17.8C18.8802 17.91 18.8202 18.13 18.9202 18.35C18.9403 18.4 18.9602 18.44 18.9902 18.49C19.1702 18.78 19.1302 19.06 18.9403 19.32C18.8103 19.49 18.6602 19.64 18.5002 19.76C17.5802 20.41 16.5203 20.64 15.4103 20.81C15.4403 20.75 15.4602 20.71 15.4802 20.67L15.4402 20.71ZM20.2603 8.12005C18.2203 8.62005 13.5003 8.74005 10.6703 8.12005C13.8703 7.59005 17.0702 7.59005 20.2603 8.12005Z" fill="#DCDC34"/>
</g>
<defs>
<clipPath id="clip0_63_2487">
<rect width="30.5" height="30.5" fill="white"/>
</clipPath>
</defs>
</svg>
