<svg width="31" height="31" viewBox="0 0 31 31" fill="none" xmlns="http://www.w3.org/2000/svg">
<path d="M30.25 0.25H0.25V30.25H30.25V0.25Z" fill="black" stroke="#DCDC34" stroke-width="0.5" stroke-miterlimit="10"/>
<path d="M26.69 10.29C26.61 10.67 26.55 11.06 26.43 11.43C25.74 13.62 23.69 15 21.42 14.83C19.27 14.67 17.44 12.93 17.07 10.72C16.6 7.90004 18.42 5.31004 21.17 4.88004C23.82 4.47004 26.34 6.47004 26.65 9.23004C26.65 9.28004 26.68 9.33004 26.69 9.37004V10.29ZM22.72 9.85004C22.96 9.61004 23.16 9.41004 23.36 9.20004C23.66 8.89004 23.68 8.50004 23.42 8.23004C23.15 7.95004 22.77 7.96004 22.46 8.28004C22.26 8.49004 22.06 8.70004 21.87 8.90004C21.83 8.88004 21.82 8.88004 21.82 8.88004C21.62 8.68004 21.42 8.47004 21.22 8.27004C20.92 7.97004 20.54 7.96004 20.28 8.23004C20.02 8.50004 20.03 8.90004 20.33 9.20004C20.53 9.41004 20.74 9.61004 20.98 9.85004C20.75 10.08 20.54 10.28 20.33 10.49C20.03 10.8 20.01 11.19 20.27 11.46C20.53 11.74 20.93 11.72 21.23 11.41C21.43 11.2 21.63 10.98 21.84 10.75C22.07 10.99 22.27 11.21 22.47 11.42C22.76 11.72 23.15 11.73 23.41 11.47C23.67 11.2 23.66 10.8 23.36 10.5C23.16 10.29 22.94 10.09 22.72 9.86004V9.85004Z" fill="#DCDC34"/>
<path d="M15.8496 11.13C15.1596 11.06 14.5096 10.96 13.8496 10.95C11.6096 10.89 9.57964 11.55 7.76964 12.92C7.14964 13.39 6.51964 13.52 5.83964 13.11C4.78964 12.47 4.72964 11.03 5.70964 10.28C7.69964 8.74998 9.91964 7.86998 12.3896 7.62998C13.5796 7.51998 14.7696 7.55998 15.9496 7.76998C15.9796 7.76998 15.9996 7.78998 16.0496 7.79998C15.6996 8.89998 15.6296 10.02 15.8496 11.14V11.13Z" fill="#DCDC34"/>
<path d="M13.7096 14.39C15.1496 14.39 16.5496 14.79 17.8396 15.57C18.6596 16.07 18.9396 17.05 18.4896 17.86C18.0196 18.7 17.0496 18.98 16.2196 18.5C14.6496 17.59 13.0496 17.51 11.4196 18.29C11.2896 18.35 11.1596 18.43 11.0296 18.51C10.1996 18.97 9.23963 18.7 8.77963 17.86C8.32963 17.05 8.59963 16.07 9.39963 15.58C10.7096 14.78 12.1296 14.38 13.7096 14.38V14.39Z" fill="#DCDC34"/>
<path d="M15.2702 22.97C15.2702 23.91 14.5202 24.67 13.6202 24.66C12.7202 24.66 11.9902 23.89 11.9902 22.95C11.9902 22.02 12.7402 21.26 13.6402 21.26C14.5402 21.26 15.2702 22.03 15.2702 22.97Z" fill="#DCDC34"/>
</svg>
