<svg width="31" height="31" viewBox="0 0 31 31" fill="none" xmlns="http://www.w3.org/2000/svg">
<path d="M30.5 0.5H0.5V30.5H30.5V0.5Z" fill="black" stroke="#DCDC34" stroke-miterlimit="10"/>
<path d="M12.3704 16.19V16.16H6.44043C6.44043 17.73 6.82043 19.32 7.63043 20.78C8.44043 22.24 9.57043 23.39 10.8704 24.2L13.8704 18.98C12.9704 18.4 12.3704 17.37 12.3704 16.19Z" fill="#DCDC34"/>
<path d="M18.7402 16.16V16.19C18.7402 17.4 18.1102 18.46 17.1602 19.03L20.1302 24.2C21.4402 23.4 22.5702 22.25 23.3702 20.78C24.1802 19.32 24.5602 17.73 24.5602 16.16H18.7302H18.7402Z" fill="#DCDC34"/>
<path d="M15.55 12.9101C16.11 12.9101 16.63 13.0601 17.08 13.3201L20 8.03006C18.68 7.25006 17.15 6.81006 15.52 6.81006C13.89 6.81006 12.36 7.26006 11.04 8.03006L13.97 13.3401C14.43 13.0701 14.97 12.9101 15.54 12.9101H15.55Z" fill="#DCDC34"/>
<path d="M15.5505 20.1C13.4405 20.1 11.7305 18.35 11.7305 16.19C11.7305 14.03 13.4405 12.28 15.5505 12.28C17.6605 12.28 19.3705 14.03 19.3705 16.19C19.3705 18.35 17.6605 20.1 15.5505 20.1Z" fill="#DCDC34"/>
<path d="M15.5505 13.54C16.9705 13.54 18.1205 14.73 18.1205 16.2C18.1205 17.67 16.9705 18.86 15.5505 18.86C14.1305 18.86 12.9805 17.67 12.9805 16.2C12.9805 14.73 14.1305 13.54 15.5505 13.54ZM15.5505 11.04C12.7505 11.04 10.4805 13.35 10.4805 16.2C10.4805 19.05 12.7605 21.36 15.5505 21.36C18.3405 21.36 20.6205 19.05 20.6205 16.2C20.6205 13.35 18.3405 11.04 15.5505 11.04Z" fill="black"/>
</svg>
