<svg width="32" height="32" viewBox="0 0 32 32" fill="none" xmlns="http://www.w3.org/2000/svg">
<path d="M31 1H1V31H31V1Z" fill="black" stroke="#DCDC34" stroke-width="0.5" stroke-miterlimit="10"/>
<path d="M12.0506 11.1901C11.6706 11.3101 11.3306 11.4601 11.0306 11.7001C10.4906 12.1301 10.2806 12.7001 10.3906 13.3901C10.4706 13.8901 10.7006 14.3101 10.9906 14.7101C11.9306 15.9701 13.1606 16.8401 14.6006 17.4301C15.5606 17.8201 16.5006 17.8101 17.4606 17.4201C18.6106 16.9501 19.6306 16.2701 20.5006 15.3601C20.8606 14.9901 21.1706 14.5801 21.4006 14.1101C21.6306 13.6401 21.7506 13.1401 21.6006 12.6201C21.3606 11.7901 20.7106 11.4701 19.9406 11.1901C19.9406 11.6301 19.9706 12.0401 19.9406 12.4401C19.7106 14.6901 17.5706 16.3401 15.4006 15.9501C13.4406 15.6001 12.0806 13.9401 12.0806 11.9001C12.0806 11.6801 12.0806 11.4501 12.0806 11.2101L12.0506 11.1901ZM13.1806 10.9201C13.1806 11.2801 13.1806 11.6001 13.1806 11.9301C13.1806 13.1901 13.9706 14.2801 15.1306 14.6701C16.2806 15.0601 17.5206 14.6401 18.2706 13.6501C18.8806 12.8301 18.8606 11.8901 18.8206 10.9201C16.9506 10.7101 15.0806 10.7001 13.1906 10.9201H13.1806Z" fill="#DCDC34"/>
<path d="M12.16 25.9101C11.97 24.7601 11.78 23.6001 11.6 22.4501C11.45 21.4901 11.29 20.5301 11.14 19.5801C11.08 19.1801 11.32 18.8901 11.72 18.8801C14.57 18.8801 17.42 18.8801 20.28 18.8801C20.68 18.8801 20.93 19.1701 20.86 19.5801C20.63 21.0401 20.39 22.5001 20.16 23.9601C20.05 24.6101 19.95 25.2701 19.84 25.9201H12.16V25.9101ZM16.56 21.7801C16.56 21.4701 16.31 21.2001 16 21.2001C15.7 21.2001 15.44 21.4501 15.43 21.7701C15.43 22.0901 15.68 22.3601 16 22.3601C16.3 22.3601 16.56 22.1001 16.56 21.7801Z" fill="#DCDC34"/>
<path d="M6.37035 22.9401C6.48035 22.5101 6.57035 22.0701 6.71035 21.6401C7.45035 19.3801 8.59035 17.3601 10.0804 15.5301C10.1004 15.5101 10.1104 15.4901 10.1304 15.4401C10.8304 16.3601 11.6504 17.0801 12.5704 17.7201C12.2604 17.7201 11.9504 17.7201 11.6504 17.7201C10.9204 17.7401 10.2804 18.2401 10.0704 18.9601C9.96035 19.3401 10.0204 19.7101 10.0704 20.0901C10.3804 21.9801 10.6804 23.8701 10.9904 25.7601C10.9904 25.8101 10.9904 25.8601 10.9904 25.9101H8.66035C8.61035 25.8801 8.56035 25.8501 8.50035 25.8301C7.45035 25.5901 6.77035 24.9401 6.45035 23.8801C6.41035 23.7601 6.39035 23.6301 6.36035 23.5101V22.9301L6.37035 22.9401Z" fill="#DCDC34"/>
<path d="M21.0001 25.9101C21.0701 25.4501 21.1301 24.9801 21.2101 24.5201C21.4601 22.9401 21.7301 21.3601 21.9701 19.7801C22.1501 18.6301 21.3701 17.7201 20.2401 17.7201C19.9701 17.7201 19.7001 17.7201 19.3701 17.7201C20.3401 17.0901 21.1701 16.3701 21.8501 15.4601C21.9101 15.5201 21.9601 15.5801 22.0001 15.6401C23.5401 17.5601 24.7101 19.7001 25.4201 22.0801C25.5901 22.6501 25.7201 23.2301 25.5601 23.8201C25.2601 24.9101 24.5701 25.5801 23.4901 25.8301C23.4301 25.8401 23.3901 25.8801 23.3301 25.9101H21.0001Z" fill="#DCDC34"/>
<path d="M16.3002 6.09008C16.5702 6.16008 16.8502 6.21008 17.1102 6.31008C18.1902 6.71008 19.0402 7.44008 19.7802 8.31008C20.2602 8.87008 20.6502 9.49008 20.9602 10.1601C20.9902 10.2201 21.0202 10.2901 21.0502 10.3701C21.0002 10.3701 20.9802 10.3701 20.9602 10.3501C20.0802 9.93008 19.1402 9.76008 18.1802 9.68008C16.7202 9.56008 15.2602 9.56008 13.8002 9.68008C12.8402 9.76008 11.9002 9.94008 11.0202 10.3601C11.0002 10.3601 10.9802 10.3601 10.9502 10.3701C10.9502 10.3401 10.9502 10.3201 10.9502 10.3001C11.7002 8.66008 12.7902 7.34008 14.3902 6.52008C14.7902 6.31008 15.2502 6.23008 15.6802 6.08008C15.8802 6.08008 16.0802 6.08008 16.2802 6.08008L16.3002 6.09008Z" fill="#DCDC34"/>
<path d="M12.0503 11.19C12.0503 11.43 12.0503 11.65 12.0503 11.88C12.0503 13.92 13.4203 15.58 15.3703 15.93C17.5403 16.32 19.6803 14.67 19.9103 12.42C19.9503 12.02 19.9103 11.61 19.9103 11.17C20.6803 11.45 21.3403 11.77 21.5703 12.6C21.7203 13.13 21.6003 13.62 21.3703 14.09C21.1403 14.56 20.8303 14.97 20.4703 15.34C19.6003 16.25 18.5903 16.93 17.4303 17.4C16.4803 17.79 15.5303 17.8 14.5703 17.41C13.1403 16.83 11.9103 15.96 10.9603 14.69C10.6703 14.3 10.4403 13.87 10.3603 13.37C10.2503 12.68 10.4603 12.11 11.0003 11.68C11.3003 11.44 11.6403 11.29 12.0203 11.17L12.0503 11.19Z" fill="#DCDC34"/>
<path d="M13.1799 10.9201C15.0699 10.7001 16.9399 10.7001 18.8099 10.9201C18.8499 11.8901 18.8699 12.8401 18.2599 13.6501C17.5199 14.6501 16.2799 15.0601 15.1199 14.6701C13.9599 14.2801 13.1799 13.1801 13.1699 11.9301C13.1699 11.6001 13.1699 11.2701 13.1699 10.9201H13.1799Z" fill="#DCDC34"/>
</svg>
