<svg width="31" height="31" viewBox="0 0 31 31" fill="none" xmlns="http://www.w3.org/2000/svg">
<path d="M30.5 0.5H0.5V30.5H30.5V0.5Z" fill="black" stroke="#DCDC34" stroke-miterlimit="10"/>
<path d="M15.2695 6.25L17.2695 10.75L21.1695 9.53L23.9995 15.76" stroke="#DCDC34" stroke-miterlimit="10" stroke-linecap="round"/>
<path d="M18.9092 14.44L19.2892 13.51L23.8492 15.41L25.4092 10.74L26.3592 11.05L24.4492 16.75L18.9092 14.44Z" fill="#DCDC34"/>
<path d="M15.1298 21.92C14.7998 20.54 13.6998 19.42 12.2798 18.97C13.0298 18.5 13.5198 17.66 13.5198 16.71C13.5198 15.23 12.3198 14.04 10.8498 14.04C9.37975 14.04 8.17975 15.24 8.17975 16.71C8.17975 17.66 8.67975 18.49 9.41975 18.97C7.99975 19.43 6.89975 20.54 6.56975 21.92C6.45975 22.37 6.81975 22.81 7.27975 22.81H14.4198C14.8898 22.81 15.2398 22.38 15.1298 21.92Z" fill="#DCDC34"/>
<path d="M20.8097 23.54C20.3597 21.65 18.8597 20.12 16.9097 19.5C17.9297 18.85 18.6097 17.71 18.6097 16.41C18.6097 14.39 16.9697 12.75 14.9497 12.75C12.9297 12.75 11.2897 14.39 11.2897 16.41C11.2897 17.71 11.9697 18.85 12.9897 19.5C11.0397 20.12 9.54971 21.65 9.08971 23.54C8.93971 24.16 9.42971 24.75 10.0697 24.75H19.8297C20.4697 24.75 20.9597 24.16 20.8097 23.54Z" fill="#DCDC34" stroke="black" stroke-miterlimit="10"/>
</svg>
