<?xml version="1.0" encoding="UTF-8"?><svg id="Livello_2" xmlns="http://www.w3.org/2000/svg" viewBox="0 0 97 94"><defs><style>.cls-1{stroke-width:3px;}.cls-1,.cls-2{stroke:#dcdc34;}.cls-1,.cls-2,.cls-3{stroke-miterlimit:10;}.cls-1,.cls-3{fill:none;}.cls-4{fill:#dcdc34;}.cls-3{stroke:#000;stroke-width:2px;}</style></defs><g id="Livello_1-2"><rect class="cls-2" x=".5" y=".5" width="96" height="93"/></g><g id="Icon"><rect class="cls-4" x="18.69" y="34.8" width="48.82" height="24.41" rx="3.05" ry="3.05"/><path class="cls-4" d="M67.52,66.94c0,1.38-1.13,2.52-2.52,2.52H21.21c-1.38,0-2.52-1.13-2.52-2.52v-5.81h48.82v5.81Z"/><rect class="cls-3" x="39.56" y="55.28" width="7.09" height="8.66" rx="2.39" ry="2.39"/><path class="cls-1" d="M36.33,34.8v-3.77c0-.96,.78-1.74,1.74-1.74h9.39c1.15,0,2.09,.94,2.09,2.09v3.42"/><circle cx="66.66" cy="36.97" r="6.69"/><path class="cls-4" d="M78.67,38.13c-.21,.93-.35,1.88-.65,2.79-1.73,5.33-6.91,8.72-12.63,8.3-5.41-.4-10.03-4.63-10.96-10.04-1.18-6.89,3.39-13.2,10.33-14.25,6.67-1.01,13.03,3.88,13.81,10.61,.01,.12,.06,.23,.1,.35v2.24Zm-10-1.08c.59-.58,1.11-1.07,1.61-1.58,.74-.75,.8-1.7,.14-2.37-.67-.69-1.64-.65-2.41,.11-.51,.51-1.01,1.03-1.49,1.52-.1-.04-.12-.04-.13-.06-.51-.5-1.01-1-1.52-1.5-.75-.73-1.71-.77-2.37-.1-.66,.67-.62,1.63,.12,2.37,.51,.51,1.04,1.01,1.63,1.58-.58,.55-1.11,1.05-1.63,1.56-.75,.74-.8,1.7-.14,2.37,.66,.67,1.66,.63,2.41-.12,.51-.51,1-1.04,1.54-1.61,.57,.59,1.07,1.12,1.59,1.63,.73,.72,1.72,.76,2.37,.11,.66-.66,.62-1.63-.11-2.37-.51-.52-1.05-1.01-1.62-1.56Z"/><circle class="cls-3" cx="66.47" cy="36.77" r="12.23"/></g></svg>