<svg width="31" height="31" viewBox="0 0 31 31" fill="none" xmlns="http://www.w3.org/2000/svg">
<g clip-path="url(#clip0_63_2469)">
<path d="M30.25 0.25H0.25V30.25H30.25V0.25Z" fill="black" stroke="#DCDC34" stroke-width="0.5" stroke-miterlimit="10"/>
<path d="M16.9308 11.28C16.8975 11.7466 16.6608 11.98 16.2208 11.98C15.4708 11.98 14.7308 11.98 13.9808 11.98C13.5708 11.98 13.4808 11.89 13.4708 11.46C13.4708 11.4 13.4708 11.35 13.4708 11.29C13.2408 11.27 13.0408 11.27 12.8308 11.24C12.4408 11.18 12.1208 10.98 11.8508 10.69C11.7908 10.63 11.6908 10.57 11.6008 10.56C10.7608 10.47 10.1108 9.80996 10.0308 8.96996C9.95082 8.12996 10.4508 7.34996 11.2708 7.09996C11.3808 7.05996 11.4408 7.01996 11.4808 6.88996C11.7608 5.92996 12.6508 5.41996 13.5908 5.66996C13.7008 5.69996 13.7708 5.68996 13.8408 5.58996C14.5608 4.65996 15.8408 4.65996 16.5508 5.58996C16.6208 5.67996 16.6808 5.70996 16.8008 5.67996C17.7408 5.42996 18.6308 5.92996 18.9108 6.88996C18.9508 7.00996 19.0008 7.05996 19.1208 7.09996C19.9308 7.34996 20.4408 8.11996 20.3608 8.96996C20.2808 9.81996 19.6308 10.48 18.7708 10.57C18.7008 10.57 18.6208 10.6 18.5808 10.64C18.1808 11.12 17.6708 11.31 17.0608 11.28C17.0208 11.28 16.9808 11.28 16.9208 11.28H16.9308ZM13.8208 7.37996C13.5008 7.41996 13.2208 7.53996 12.9808 7.74996C12.7608 7.93996 12.7208 8.14996 12.8708 8.31996C13.0108 8.48996 13.2008 8.47996 13.4208 8.29996C13.7208 8.04996 13.9108 8.04996 14.2208 8.29996C14.2508 8.31996 14.2708 8.34996 14.3008 8.36996C14.4608 8.47996 14.6108 8.46996 14.7508 8.33996C14.8808 8.20996 14.8908 8.00996 14.7608 7.85996C14.5108 7.57996 14.1908 7.42996 13.8208 7.37996ZM16.5808 8.79996C16.2508 8.83996 15.9708 8.95996 15.7208 9.17996C15.5208 9.35996 15.4908 9.56996 15.6308 9.73996C15.7708 9.89996 15.9608 9.89996 16.1608 9.72996C16.4908 9.44996 16.6508 9.45996 16.9908 9.72996C17.0108 9.74996 17.0308 9.76996 17.0608 9.78996C17.2208 9.89996 17.3708 9.88996 17.5108 9.74996C17.6408 9.61996 17.6508 9.41996 17.5108 9.26996C17.2608 8.98996 16.9408 8.83996 16.5708 8.79996H16.5808Z" fill="#DCDC34"/>
<path d="M11.6605 17.1299C10.6805 18.9299 9.61048 20.6399 8.43048 22.2599C7.99048 22.8599 7.53048 23.4499 7.08048 24.0399C6.97048 24.1799 6.88048 24.3099 6.95048 24.5099C7.03048 24.7199 7.18048 24.7399 7.35048 24.7299C7.39048 24.7299 7.44048 24.7299 7.48048 24.7299H15.1905C17.8005 24.7299 20.4105 24.7299 23.0105 24.7299C23.0805 24.7299 23.1505 24.7299 23.2205 24.7299C23.4505 24.6899 23.5505 24.4099 23.4305 24.1899C23.4005 24.1299 23.3505 24.0799 23.3105 24.0199C22.6905 23.1899 22.0505 22.3699 21.4505 21.5199C20.4605 20.1199 19.5605 18.6399 18.7205 17.1099L18.2405 16.2299C18.2005 16.1499 18.1805 16.0999 18.1605 16.0499C17.6105 15.0799 17.2105 14.6299 16.7505 13.6099C16.6505 13.3899 16.5305 13.2999 16.3105 13.2999C15.5705 13.2999 14.8305 13.3099 14.0905 13.2999C13.8705 13.2999 13.7505 13.3899 13.6405 13.6199C13.1905 14.6299 12.7905 15.0599 12.2605 15.9999C12.2305 16.0599 12.2005 16.1299 12.1605 16.2199L11.6705 17.1199L11.6605 17.1299Z" fill="#DCDC34"/>
</g>
<defs>
<clipPath id="clip0_63_2469">
<rect width="30.5" height="30.5" fill="white"/>
</clipPath>
</defs>
</svg>
